<svg width="101" height="23" viewBox="0 0 101 23" fill="none" xmlns="http://www.w3.org/2000/svg">
<path d="M0.632019 18H3.65602V10.656H11.672V8.016H3.65602V2.784H12.584V0.119995H0.632019V18Z" fill="black"/>
<path d="M14.546 3.36H17.426V0.119995H14.546V3.36ZM14.546 18H17.426V5.064H14.546V18Z" fill="black"/>
<path d="M25.335 4.776C22.767 4.776 20.607 6.144 19.863 8.112L22.359 9.36C22.839 8.136 23.943 7.368 25.335 7.368C26.775 7.368 27.759 8.16 27.759 9.36V9.768L23.511 10.68C20.895 11.256 19.383 12.528 19.383 14.448C19.383 16.656 21.207 18.288 24.087 18.288C25.647 18.288 26.967 17.712 27.927 16.56V18H30.639V9.36C30.639 6.672 28.479 4.776 25.335 4.776ZM24.423 16.008C23.175 16.008 22.383 15.408 22.383 14.424C22.383 13.632 23.007 13.008 24.087 12.768L27.759 11.952V12.792C27.759 14.616 26.343 16.008 24.423 16.008Z" fill="black"/>
<path d="M38.7787 18.144C39.2347 18.144 39.8107 18.096 40.2667 18.024V15.72C39.9547 15.768 39.6427 15.792 39.4027 15.792C37.5787 15.792 37.1227 14.76 37.1227 13.656V7.656H40.1947V5.064H37.1227V1.056H34.2427V3.12C34.2427 4.368 33.5227 5.064 32.2747 5.064H31.8907V7.656H34.2427V13.656C34.2427 16.512 35.8747 18.144 38.7787 18.144Z" fill="black"/>
<path d="M47.1943 18.288C50.1463 18.288 52.1863 16.704 52.1863 14.376C52.1863 12.576 50.9863 11.28 48.7543 10.656L46.4503 10.008C45.7063 9.792 44.8903 9.384 44.8903 8.568C44.8903 7.752 45.6343 7.2 46.8343 7.2C48.2983 7.2 49.4503 7.944 49.9303 9.168L52.1863 8.112C51.3943 6.048 49.3783 4.776 46.8343 4.776C43.9783 4.776 42.0343 6.36 42.0343 8.688C42.0343 10.44 43.1623 11.76 45.4183 12.384L47.6263 12.96C48.4183 13.176 49.3303 13.56 49.3303 14.448C49.3303 15.336 48.4903 15.936 47.1943 15.936C45.6583 15.936 44.3863 15.12 43.7143 13.584L41.4823 14.664C42.2983 16.92 44.5063 18.288 47.1943 18.288Z" fill="black"/>
<path d="M70.1176 5.064L67.4056 13.752L64.6696 5.064H61.4776L58.7416 13.752L56.0056 5.064H52.9576L57.4216 18H60.0136L63.0856 8.736L66.1336 18H68.7016L73.1896 5.064H70.1176Z" fill="black"/>
<path d="M79.5459 4.776C76.9779 4.776 74.8179 6.144 74.0739 8.112L76.5699 9.36C77.0499 8.136 78.1539 7.368 79.5459 7.368C80.9859 7.368 81.9699 8.16 81.9699 9.36V9.768L77.7219 10.68C75.1059 11.256 73.5939 12.528 73.5939 14.448C73.5939 16.656 75.4179 18.288 78.2979 18.288C79.8579 18.288 81.1779 17.712 82.1379 16.56V18H84.8499V9.36C84.8499 6.672 82.6899 4.776 79.5459 4.776ZM78.6339 16.008C77.3859 16.008 76.5939 15.408 76.5939 14.424C76.5939 13.632 77.2179 13.008 78.2979 12.768L81.9699 11.952V12.792C81.9699 14.616 80.5539 16.008 78.6339 16.008Z" fill="black"/>
<path d="M94.1416 4.776C92.3176 4.776 90.7576 5.496 89.8696 6.696V5.064H87.1576V22.8H90.0376V16.68C90.9496 17.688 92.4136 18.288 94.1176 18.288C97.8136 18.288 100.694 15.36 100.694 11.52C100.694 7.68 97.7896 4.776 94.1416 4.776ZM93.8536 15.624C91.6216 15.624 90.0376 13.92 90.0376 11.544C90.0376 9.144 91.6216 7.44 93.8536 7.44C96.0616 7.44 97.6936 9.16799 97.6936 11.544C97.6936 13.896 96.0616 15.624 93.8536 15.624Z" fill="black"/>
</svg>
