<?xml version="1.0" encoding="utf-8"?>
<!-- Generator: Adobe Illustrator 18.1.1, SVG Export Plug-In . SVG Version: 6.00 Build 0)  -->
<!DOCTYPE svg PUBLIC "-//W3C//DTD SVG 1.1//EN" "http://www.w3.org/Graphics/SVG/1.1/DTD/svg11.dtd">
<svg version="1.1" id="Layer_1" xmlns="http://www.w3.org/2000/svg" xmlns:xlink="http://www.w3.org/1999/xlink" x="0px" y="0px"
	 viewBox="0 0 320 95" enable-background="new 0 0 320 95" xml:space="preserve">
<path d="M61.8,50c0,17-11.2,28.5-26,28.5c-6.6,0-12-2.1-15.8-6V95H0V23h20v4.4c3.8-3.8,9.2-6,15.8-6C50.6,21.3,61.8,32.9,61.8,50z
	 M41.8,50c0-6.8-4.3-12-10.9-12c-6.1,0-11,5.1-11,12c0,6.7,4.9,11.8,11,11.8C37.6,61.8,41.8,56.7,41.8,50z"/>
<path d="M125.1,76.9h-20v-5.4c-4.2,4.5-9.7,7-16.2,7c-12.2,0-20.3-8.4-20.3-22.1V23h20.1v29.1c0,5.1,3,8.5,7.6,8.5
	c5.3,0,8.9-4,8.9-11.5V23h20V76.9z"/>
<path d="M191.6,43.4v33.4h-20.1V47.7c0-5.1-3-8.5-7.6-8.5c-5.3,0-8.9,3.9-8.9,11.5v26.2h-20V23h20v5.4c4.2-4.5,9.7-7,16.2-7
	C183.5,21.3,191.6,29.8,191.6,43.4z"/>
<path d="M256.4,56.6c-2.2,13.3-14.1,21.9-28.1,21.9c-16.3,0-29.9-11.5-29.9-28.5c0-17.1,13.6-28.6,29.9-28.6
	c13.9,0,25.5,8.4,28,21.6l-18.4,3.8c-1.2-5.7-4.9-8.5-9.6-8.5c-6.4,0-10.7,5.2-10.7,11.7s4.3,11.6,10.7,11.6c4.7,0,8.4-2.9,9.8-8.5
	L256.4,56.6z"/>
<path d="M320,43.4v33.4h-20.1V47.7c0-5.1-3-8.5-7.6-8.5c-5.3,0-8.9,3.9-8.9,11.5v26.2h-20V0h20v28.4c4.2-4.5,9.7-7,16.2-7
	C311.9,21.3,320,29.8,320,43.4z"/>
</svg>
